<svg height="422pt" viewBox="0 0 422 422" width="422pt" xmlns="http://www.w3.org/2000/svg"><path d="m211 10c111 0 201 90 201 201s-90 201-201 201-201-90-201-201 90-201 201-201zm112 226v-50h-87v-83h-50v83h-87v50h87v83h50v-83zm0 0" fill="#00acea"/><path d="m323 186v50h-87v83h-50v-83h-87v-50h87v-83h50v83zm0 0" fill="#00efd1"/><g fill="#083863"><path d="m323 176h-77v-73c-.015625-5.515625-4.484375-9.984375-10-10h-50c-5.515625.015625-9.984375 4.484375-10 10v73h-77c-5.515625.015625-9.984375 4.484375-10 10v50c.015625 5.515625 4.484375 9.984375 10 10h77v73c.015625 5.515625 4.484375 9.984375 10 10h50c5.515625-.015625 9.984375-4.484375 10-10v-73h77c5.515625-.015625 9.984375-4.484375 10-10v-50c-.015625-5.515625-4.484375-9.984375-10-10zm-10 50h-77c-5.515625.015625-9.984375 4.484375-10 10v73h-30v-73c-.015625-5.515625-4.484375-9.984375-10-10h-77v-30h77c5.515625-.015625 9.984375-4.484375 10-10v-73h30v73c.015625 5.515625 4.484375 9.984375 10 10h77zm0 0"/><path d="m211 0c-116.398438 0-211 94.601562-211 211s94.699219 211 211 211c116.398438 0 211-94.699219 211-211s-94.601562-211-211-211zm0 402c-105.300781 0-191-85.699219-191-191s85.699219-191 191-191 191 85.699219 191 191-85.699219 191-191 191zm0 0"/></g></svg>